<svg aria-hidden="true" style="position: absolute; width: 0; height: 0; overflow: hidden;" version="1.1" xmlns="http://www.w3.org/2000/svg" xmlns:xlink="http://www.w3.org/1999/xlink">
<defs>
<symbol id="icon-mob-arrow-upright" viewBox="0 0 30 32">
<path fill="none" stroke="#fff" style="stroke: var(--color1, #fff)" stroke-linejoin="round" stroke-linecap="round" stroke-miterlimit="10" stroke-width="1.8824" d="M11.829 8.456h10.772v10.772"></path>
<path fill="none" stroke="#fff" style="stroke: var(--color1, #fff)" stroke-linejoin="round" stroke-linecap="round" stroke-miterlimit="10" stroke-width="1.8824" d="M7.517 23.541l14.934-14.934"></path>
</symbol>
<symbol id="icon-arrow-left" viewBox="0 0 32 32">
<path stroke-linejoin="round" stroke-linecap="round" stroke-miterlimit="10" stroke-width="1.3333" d="M12.759 7.905l-8.093 8.093 8.093 8.093"></path>
<path stroke-linejoin="round" stroke-linecap="round" stroke-miterlimit="10" stroke-width="1.3333" d="M27.333 15.999h-22.44"></path>
</symbol>
<symbol id="icon-arrow-right" viewBox="0 0 32 32">
<path stroke-linejoin="round" stroke-linecap="round" stroke-miterlimit="10" stroke-width="1.3333" d="M19.241 7.905l8.093 8.093-8.093 8.093"></path>
<path stroke-linejoin="round" stroke-linecap="round" stroke-miterlimit="10" stroke-width="1.3333" d="M4.667 15.999h22.44"></path>
</symbol>
<symbol id="icon-arrow-up" viewBox="0 0 32 32">
<path stroke-linejoin="round" stroke-linecap="round" stroke-miterlimit="10" stroke-width="2" d="M7.906 12.76l8.093-8.093 8.093 8.093"></path>
<path stroke-linejoin="round" stroke-linecap="round" stroke-miterlimit="10" stroke-width="2" d="M16 27.333v-22.44"></path>
</symbol>
<symbol id="icon-arrow-upright" viewBox="0 0 32 32">
<path stroke-linejoin="round" stroke-linecap="round" stroke-miterlimit="10" stroke-width="1.7143" d="M12.569 7.985h11.446v11.446"></path>
<path stroke-linejoin="round" stroke-linecap="round" stroke-miterlimit="10" stroke-width="1.7143" d="M7.987 24.012l15.868-15.867"></path>
</symbol>
<symbol id="icon-call" viewBox="0 0 31 32">
<path stroke-linejoin="miter" stroke-linecap="butt" stroke-miterlimit="10" stroke-width="1.92" d="M28.122 24.102c0 0.461-0.102 0.934-0.32 1.395s-0.499 0.896-0.87 1.306c-0.627 0.691-1.318 1.19-2.099 1.51-0.768 0.32-1.6 0.486-2.496 0.486-1.306 0-2.701-0.307-4.173-0.934s-2.944-1.472-4.403-2.534c-1.472-1.075-2.867-2.266-4.198-3.584-1.318-1.331-2.509-2.726-3.571-4.186-1.050-1.459-1.894-2.918-2.509-4.365-0.614-1.459-0.922-2.854-0.922-4.186 0-0.87 0.154-1.702 0.461-2.47 0.307-0.781 0.794-1.498 1.472-2.138 0.819-0.806 1.715-1.203 2.662-1.203 0.358 0 0.717 0.077 1.037 0.23 0.333 0.154 0.627 0.384 0.858 0.717l2.97 4.186c0.23 0.32 0.397 0.614 0.512 0.896 0.115 0.269 0.179 0.538 0.179 0.781 0 0.307-0.090 0.614-0.269 0.909-0.166 0.294-0.41 0.602-0.717 0.909l-0.973 1.011c-0.141 0.141-0.205 0.307-0.205 0.512 0 0.102 0.013 0.192 0.038 0.294 0.038 0.102 0.077 0.179 0.102 0.256 0.23 0.422 0.627 0.973 1.19 1.638 0.576 0.666 1.19 1.344 1.856 2.022 0.691 0.678 1.357 1.306 2.035 1.882 0.666 0.563 1.216 0.947 1.651 1.178 0.064 0.026 0.141 0.064 0.23 0.102 0.102 0.038 0.205 0.051 0.32 0.051 0.218 0 0.384-0.077 0.525-0.218l0.973-0.96c0.32-0.32 0.627-0.563 0.922-0.717 0.294-0.179 0.589-0.269 0.909-0.269 0.243 0 0.499 0.051 0.781 0.166s0.576 0.282 0.896 0.499l4.237 3.008c0.333 0.23 0.563 0.499 0.704 0.819 0.128 0.32 0.205 0.64 0.205 0.998z"></path>
</symbol>
<symbol id="icon-close" viewBox="0 0 32 32">
<path fill="none" stroke="#fff" style="stroke: var(--color1, #fff)" stroke-linejoin="round" stroke-linecap="round" stroke-miterlimit="4" stroke-width="2.4" d="M9.333 9.333l13.333 13.333M9.333 22.667l13.333-13.333"></path>
</symbol>
<symbol id="icon-facebook1" viewBox="0 0 32 32">
<path stroke-linejoin="miter" stroke-linecap="round" stroke-miterlimit="10" stroke-width="2" d="M18.667 12.4v3.867h3.467c0.267 0 0.4 0.267 0.4 0.533l-0.533 2.533c0 0.133-0.267 0.267-0.4 0.267h-2.933v9.733h-4v-9.6h-2.267c-0.267 0-0.4-0.133-0.4-0.4v-2.533c0-0.267 0.133-0.4 0.4-0.4h2.267v-4.4c0-2.267 1.733-4 4-4h3.6c0.267 0 0.4 0.133 0.4 0.4v3.2c0 0.267-0.133 0.4-0.4 0.4h-3.2c-0.267 0-0.4 0.133-0.4 0.4z"></path>
<path stroke-linejoin="round" stroke-linecap="round" stroke-miterlimit="4" stroke-width="2" d="M20 29.333h-8c-6.667 0-9.333-2.667-9.333-9.333v-8c0-6.667 2.667-9.333 9.333-9.333h8c6.667 0 9.333 2.667 9.333 9.333v8c0 6.667-2.667 9.333-9.333 9.333z"></path>
</symbol>
<symbol id="icon-facebook2" viewBox="0 0 32 32">
<path d="M18.667 12.4v3.867h3.467c0.267 0 0.4 0.267 0.4 0.533l-0.533 2.533c0 0.133-0.267 0.267-0.4 0.267h-2.933v9.733h-4v-9.6h-2.267c-0.267 0-0.4-0.133-0.4-0.4v-2.533c0-0.267 0.133-0.4 0.4-0.4h2.267v-4.4c0-2.267 1.733-4 4-4h3.6c0.267 0 0.4 0.133 0.4 0.4v3.2c0 0.267-0.133 0.4-0.4 0.4h-3.2c-0.267 0-0.4 0.133-0.4 0.4z"></path>
<path fill="none" stroke="#173d33" style="stroke: var(--color2, #173d33)" stroke-linejoin="round" stroke-linecap="round" stroke-miterlimit="4" stroke-width="2" d="M20 29.333h-8c-6.667 0-9.333-2.667-9.333-9.333v-8c0-6.667 2.667-9.333 9.333-9.333h8c6.667 0 9.333 2.667 9.333 9.333v8c0 6.667-2.667 9.333-9.333 9.333z"></path>
</symbol>
<symbol id="icon-instagram" viewBox="0 0 32 32">
<path stroke-linejoin="round" stroke-linecap="round" stroke-miterlimit="4" stroke-width="2" d="M12 29.333h8c6.667 0 9.333-2.667 9.333-9.333v-8c0-6.667-2.667-9.333-9.333-9.333h-8c-6.667 0-9.333 2.667-9.333 9.333v8c0 6.667 2.667 9.333 9.333 9.333z"></path>
<path stroke-linejoin="round" stroke-linecap="round" stroke-miterlimit="4" stroke-width="2" d="M16 20.667c2.577 0 4.667-2.089 4.667-4.667s-2.089-4.667-4.667-4.667c-2.577 0-4.667 2.089-4.667 4.667s2.089 4.667 4.667 4.667z"></path>
<path stroke-linejoin="round" stroke-linecap="round" stroke-miterlimit="4" stroke-width="2.6667" d="M23.515 9.333h0.015"></path>
</symbol>
<symbol id="icon-map" viewBox="0 0 31 32">
<path stroke-linejoin="round" stroke-linecap="round" stroke-miterlimit="4" stroke-width="1.92" d="M2.931 10.598v12.454c0 2.432 1.728 3.43 3.827 2.227l3.008-1.715c0.653-0.371 1.741-0.41 2.419-0.064l6.72 3.366c0.678 0.333 1.766 0.307 2.419-0.064l5.542-3.174c0.704-0.41 1.293-1.408 1.293-2.227v-12.454c0-2.432-1.728-3.43-3.827-2.227l-3.008 1.715c-0.653 0.371-1.741 0.41-2.419 0.064l-6.72-3.354c-0.678-0.333-1.766-0.307-2.419 0.064l-5.542 3.174c-0.717 0.41-1.293 1.408-1.293 2.214z"></path>
<path stroke-linejoin="round" stroke-linecap="round" stroke-miterlimit="4" stroke-width="1.92" d="M10.957 5.76v16.64"></path>
<path stroke-linejoin="round" stroke-linecap="round" stroke-miterlimit="4" stroke-width="1.92" d="M20.134 9.113v17.126"></path>
</symbol>
<symbol id="icon-mob-facebook" viewBox="0 0 32 32">
<path fill="#fff" style="fill: var(--color1, #fff)" d="M18.667 12.4v3.867h3.467c0.267 0 0.4 0.267 0.4 0.533l-0.533 2.533c0 0.133-0.267 0.267-0.4 0.267h-2.933v9.733h-4v-9.6h-2.267c-0.267 0-0.4-0.133-0.4-0.4v-2.533c0-0.267 0.133-0.4 0.4-0.4h2.267v-4.4c0-2.267 1.733-4 4-4h3.6c0.267 0 0.4 0.133 0.4 0.4v3.2c0 0.267-0.133 0.4-0.4 0.4h-3.2c-0.267 0-0.4 0.133-0.4 0.4z"></path>
<path fill="none" stroke="#fff" style="stroke: var(--color1, #fff)" stroke-linejoin="round" stroke-linecap="round" stroke-miterlimit="4" stroke-width="2" d="M20 29.333h-8c-6.667 0-9.333-2.667-9.333-9.333v-8c0-6.667 2.667-9.333 9.333-9.333h8c6.667 0 9.333 2.667 9.333 9.333v8c0 6.667-2.667 9.333-9.333 9.333z"></path>
</symbol>
<symbol id="icon-mob-instagram" viewBox="0 0 32 32">
<path fill="none" stroke="#fff" style="stroke: var(--color1, #fff)" stroke-linejoin="round" stroke-linecap="round" stroke-miterlimit="4" stroke-width="2" d="M12 29.333h8c6.667 0 9.333-2.667 9.333-9.333v-8c0-6.667-2.667-9.333-9.333-9.333h-8c-6.667 0-9.333 2.667-9.333 9.333v8c0 6.667 2.667 9.333 9.333 9.333z"></path>
<path fill="none" stroke="#fff" style="stroke: var(--color1, #fff)" stroke-linejoin="round" stroke-linecap="round" stroke-miterlimit="4" stroke-width="2" d="M16 20.667c2.577 0 4.667-2.089 4.667-4.667s-2.089-4.667-4.667-4.667c-2.577 0-4.667 2.089-4.667 4.667s2.089 4.667 4.667 4.667z"></path>
<path fill="none" stroke="#fff" style="stroke: var(--color1, #fff)" stroke-linejoin="round" stroke-linecap="round" stroke-miterlimit="4" stroke-width="2.6667" d="M23.515 9.333h0.015"></path>
</symbol>
<symbol id="icon-sms" viewBox="0 0 31 32">
<path stroke-linejoin="round" stroke-linecap="round" stroke-miterlimit="10" stroke-width="1.92" d="M21.76 26.88h-12.8c-3.84 0-6.4-1.92-6.4-6.4v-8.96c0-4.48 2.56-6.4 6.4-6.4h12.8c3.84 0 6.4 1.92 6.4 6.4v8.96c0 4.48-2.56 6.4-6.4 6.4z"></path>
<path stroke-linejoin="round" stroke-linecap="round" stroke-miterlimit="10" stroke-width="1.92" d="M21.76 12.16l-4.006 3.2c-1.318 1.050-3.482 1.050-4.8 0l-3.994-3.2"></path>
</symbol>
</defs>
</svg>
