<svg width="31" height="18" viewBox="0 0 31 18" fill="none" xmlns="http://www.w3.org/2000/svg">
<g clip-path="url(#clip0_136_2187)">
<path d="M21.3292 12.8089C21.2644 12.6555 15.9388 2.24849 15.8515 2.10508C15.6676 1.67067 15.3948 1.27833 15.0502 0.952554C14.7056 0.626774 14.2966 0.37455 13.8488 0.211631C13.4009 0.0487122 12.9238 -0.021402 12.4472 0.00566646C11.9706 0.0327349 11.5048 0.156405 11.0789 0.368954C10.6529 0.581502 10.276 0.878366 9.97162 1.24101C9.66723 1.60365 9.44193 2.02428 9.30979 2.47663C9.17764 2.92898 9.14148 3.40335 9.20357 3.8701C9.26566 4.33685 9.42467 4.78596 9.67066 5.1894C9.73547 5.34285 14.8328 15.3039 14.9201 15.4473C14.9851 15.6012 15.0614 15.7503 15.1484 15.8933C15.3323 16.3277 15.6051 16.72 15.9497 17.0458C16.2943 17.3716 16.7033 17.6238 17.1512 17.7867C17.599 17.9496 18.0762 18.0197 18.5527 17.9927C19.0293 17.9656 19.4951 17.8419 19.921 17.6294C20.347 17.4168 20.7239 17.1199 21.0283 16.7573C21.3327 16.3947 21.558 15.974 21.6901 15.5217C21.8223 15.0693 21.8584 14.595 21.7963 14.1282C21.7342 13.6615 21.5752 13.2124 21.3292 12.8089Z" fill="#173D33"/>
<path d="M15.1792 5.767C15.5057 5.42388 15.757 5.01806 15.9174 4.5749C16.0777 4.13173 16.1438 3.66072 16.1113 3.19126C16.0789 2.72181 15.9487 2.26399 15.7288 1.84638C15.5089 1.42877 15.2041 1.06034 14.8334 0.764076C14.4627 0.467816 14.034 0.250088 13.5742 0.124482C13.1143 -0.00112338 12.6332 -0.0319097 12.1607 0.0340447C11.6883 0.099999 11.2347 0.261278 10.8283 0.507816C10.4218 0.754353 10.0713 1.08086 9.79856 1.46695C9.68403 1.58728 1.03663 12.0967 0.940542 12.2324C0.614027 12.5755 0.362738 12.9813 0.202359 13.4245C0.04198 13.8676 -0.0240452 14.3386 0.00840438 14.8081C0.040854 15.2776 0.171082 15.7354 0.390959 16.153C0.610837 16.5706 0.915643 16.939 1.28635 17.2353C1.65706 17.5316 2.08572 17.7493 2.54557 17.8749C3.00541 18.0005 3.48658 18.0313 3.95903 17.9653C4.43148 17.8994 4.88507 17.7381 5.29149 17.4915C5.69791 17.245 6.04844 16.9185 6.32119 16.5324C6.43572 16.4121 15.0831 5.90271 15.1792 5.767Z" fill="#97D28B"/>
<path d="M30.0594 5.76677C30.3859 5.42364 30.6372 5.01783 30.7976 4.57466C30.958 4.13149 31.024 3.66048 30.9916 3.19102C30.9591 2.72157 30.8289 2.26375 30.609 1.84614C30.3892 1.42853 30.0844 1.06009 29.7136 0.763833C29.3429 0.467571 28.9143 0.249843 28.4544 0.124237C27.9946 -0.00136802 27.5134 -0.032154 27.041 0.0338012C26.5685 0.0997563 26.1149 0.261037 25.7085 0.507575C25.3021 0.754114 24.9516 1.08062 24.6788 1.46671C24.5643 1.58704 15.9169 12.0964 15.8208 12.2321C15.4943 12.5753 15.243 12.9811 15.0826 13.4242C14.9222 13.8674 14.8562 14.3384 14.8887 14.8079C14.9211 15.2773 15.0513 15.7351 15.2712 16.1528C15.4911 16.5704 15.7959 16.9388 16.1666 17.2351C16.5373 17.5313 16.966 17.749 17.4258 17.8746C17.8857 18.0002 18.3668 18.031 18.8393 17.9651C19.3117 17.8991 19.7653 17.7378 20.1717 17.4913C20.5782 17.2448 20.9287 16.9183 21.2014 16.5322C21.3159 16.4118 29.9633 5.90247 30.0594 5.76677Z" fill="#97D28B"/>
</g>
<defs>
<clipPath id="clip0_136_2187">
<rect width="31" height="18" fill="white"/>
</clipPath>
</defs>
</svg>
